<?xml version="1.0" encoding="utf-8" ?>	<!-- Generator: Assembly 2.4 - http://assemblyapp.co -->	<svg version="1.1" xmlns="http://www.w3.org/2000/svg" xmlns:xlink="http://www.w3.org/1999/xlink" width="500.00" height="875.00" viewBox="0 0 500.0 875.0">		<g id="document" transform="scale(4.930378420493345 4.930378420493345) translate(48.1196575284407 85.85039402245106)">			<path d="M-21.2617,36.4352 C-21.2617,-55.7621 -21.2617,9.15798 -21.2617,-36.9012 C-21.2617,-53.256 -21.4589,-66.6974 -18.1472,-70.9543 C-10.4013,-80.9108 -2.22221,-80.8159 0.00810048,-80.8159 C4.3168,-80.8159 11.1187,-77.6975 15.916,-70.9543 C19.9917,-65.2253 20.9835,-59.4877 20.9835,-59.4877 L20.9835,3.11304 " fill="none" stroke-width="2.00" stroke="#000000" stroke-linecap="round" stroke-linejoin="round" />			<path d="M20.982,-30.3976 C20.982,61.7998 20.982,-3.12031 20.982,42.9389 C20.982,59.2937 21.1793,72.7351 17.8675,76.992 C10.1217,86.9484 1.94256,86.8535 -0.287751,86.8535 C-4.59645,86.8535 -11.3984,83.7351 -16.1956,76.992 C-20.2714,71.263 -21.2631,65.5254 -21.2631,65.5254 L-21.2631,2.92461 " fill="none" stroke-width="2.00" stroke="#000000" stroke-linecap="square" stroke-linejoin="miter" />			<path d="M-4.33958,-38.8264 L3.98251,-38.8264 L3.98251,-35.1698 C2.52244,-34.4798 1.6388,-32.9098 1.6388,-31.0849 L1.63939,-31.0856 L1.63939,-31.0856 C1.29302,-30.4825 0.492328,-29.9042 -0.0732332,-29.9042 C-0.813458,-29.9042 -1.85227,-30.7423 -1.85227,-31.4825 L-1.85707,-31.5032 C-1.89073,-33.3595 -2.81167,-34.9364 -4.33958,-35.5651 L-4.33958,-38.8264 Z M-4.33958,-39.2568 L-4.33958,-41.7813 L3.98251,-41.7813 L3.98251,-39.2568 L-4.33958,-39.2568 L-4.33958,-39.2568 Z M4.38341,-38.8264 L11.7182,-38.8264 L11.7182,-39.2568 L4.38341,-39.2568 L4.38341,-40.7335 C4.38341,-41.6194 4.51797,-42.3455 3.63211,-42.3455 L-4.33958,-42.3455 C-4.33958,-42.3455 -4.64202,-42.4939 -4.73098,-41.7813 L-4.73098,-39.2568 L-11.9987,-39.2568 L-11.9987,-38.8264 L-4.73098,-38.8264 L-4.73098,-35.7012 L-4.73098,-35.7012 C-5.08401,-35.8026 -5.46453,-35.8568 -5.8697,-35.8568 L-5.8697,-35.4307 C-5.47148,-35.4307 -5.08855,-35.3656 -4.73098,-35.2453 L-4.73098,-29.4351 C-4.73098,-28.5493 -4.92293,-27.8231 -4.03707,-27.8231 L3.63211,-27.8231 C4.51797,-27.8231 4.38341,-28.5493 4.38341,-29.4351 L4.38341,-34.949 L4.38341,-34.949 C4.79288,-35.1127 5.23985,-35.2028 5.70795,-35.2028 L5.70795,-35.5441 C5.23281,-35.5441 4.78949,-35.4697 4.38341,-35.3318 L4.38341,-38.8264 L4.38341,-38.8264 Z M2.14781,-31.8642 C2.22672,-33.1124 2.94676,-34.1857 3.98251,-34.7589 L3.98251,-28.3545 L-4.33958,-28.3545 L-4.33958,-35.0871 L-4.33958,-35.0871 C-3.52388,-34.6995 -2.87886,-34.0114 -2.54732,-33.1657 L-2.30282,-31.8634 C-2.30282,-30.6327 -1.30397,-29.6338 -0.0732332,-29.6338 C1.1575,-29.6338 2.15636,-30.6327 2.15636,-31.8634 L2.14781,-31.8642 L2.14781,-31.8642 Z M-3.77116,-41.5612 L-4.11171,-41.4703 L-4.20375,-41.1286 L-3.95466,-40.8795 L-3.61239,-40.971 L-3.52207,-41.3121 L-3.77116,-41.5612 Z M-3.77116,-29.2282 L-4.11171,-29.1373 L-4.20375,-28.7956 L-3.95466,-28.5465 L-3.61239,-28.638 L-3.52207,-28.9791 L-3.77116,-29.2282 Z M3.46429,-29.2282 L3.12374,-29.1373 L3.0317,-28.7956 L3.28078,-28.5465 L3.62306,-28.638 L3.71337,-28.9791 L3.46429,-29.2282 Z M3.46429,-41.5612 L3.12374,-41.4703 L3.0317,-41.1286 L3.28078,-40.8795 L3.62306,-40.971 L3.71337,-41.3121 L3.46429,-41.5612 Z M5.70795,-35.5385 L5.70795,-35.208 L11.6534,-35.208 L11.6534,-35.5385 L5.70795,-35.5385 Z M-11.8151,-35.8689 L-11.8151,-35.4386 L-5.8697,-35.4386 L-5.8697,-35.8689 L-11.8151,-35.8689 Z M0.568692,-31.0849 L1.27761,-32.31 L0.568692,-33.5416 L-0.845878,-33.5416 L-1.55806,-32.31 L-0.845878,-31.0849 L0.568692,-31.0849 Z " fill="#000000" fill-opacity="1.00" />			<path d="M-4.40526,48.5828 L-4.40526,35.1559 L3.91683,35.1559 L3.91683,48.5828 L-4.40526,48.5828 Z M-4.05486,49.1469 L3.91683,49.1469 C3.91683,49.1469 4.21927,49.2953 4.30823,48.5828 L4.30823,36.2366 C4.30823,35.3507 4.50018,34.6246 3.61431,34.6246 L-4.05486,34.6246 C-4.94072,34.6246 -4.80616,35.3507 -4.80616,36.2366 L-4.80616,47.5349 C-4.80616,48.4208 -4.94072,49.1469 -4.05486,49.1469 Z " fill="#000000" fill-opacity="1.00" />			<path d="M3.34841,48.3626 L3.68896,48.2717 L3.781,47.93 L3.53191,47.681 L3.18963,47.7724 L3.09932,48.1136 L3.34841,48.3626 Z " fill="#000000" fill-opacity="1.00" />			<path d="M3.34841,36.0296 L3.68896,35.9387 L3.781,35.597 L3.53191,35.3479 L3.18963,35.4394 L3.09932,35.7805 L3.34841,36.0296 Z " fill="#000000" fill-opacity="1.00" />			<path d="M-3.88704,36.0296 L-3.54649,35.9387 L-3.45445,35.597 L-3.70353,35.3479 L-4.04581,35.4394 L-4.13613,35.7805 L-3.88704,36.0296 Z " fill="#000000" fill-opacity="1.00" />			<path d="M-3.88704,48.3626 L-3.54649,48.2717 L-3.45445,47.93 L-3.70353,47.681 L-4.04581,47.7724 L-4.13613,48.1136 L-3.88704,48.3626 Z " fill="#000000" fill-opacity="1.00" />			<path d="M1.42951,38.2839 L1.88007,40.2218 L2.29866,40.8944 L1.88007,38.6648 C1.88007,37.4341 0.881216,36.4352 -0.349518,36.4352 C-1.58025,36.4352 -2.57911,37.4341 -2.57911,38.6648 L-2.40165,38.6823 L-2.40165,39.1828 L-2.23275,38.6823 L-2.23275,38.4365 C-2.23275,37.6963 -1.08974,36.7057 -0.349518,36.7057 C0.390706,36.7057 1.42951,37.5437 1.42951,38.2839 Z " fill="#000000" fill-opacity="1.00" />			<path d="M1.8796,38.6648 L1.43337,38.199 C1.43337,40.6605 2.98548,42.6582 5.44695,42.6582 L5.44695,42.2322 C3.47599,42.2322 1.8796,40.6358 1.8796,38.6648 Z " fill="#000000" fill-opacity="1.00" />			<path d="M-2.56335,38.4369 L-2.06156,37.8864 C-2.06156,40.3478 -3.66923,42.3456 -6.1307,42.3456 L-6.1307,42.0042 C-4.15974,42.0042 -2.56335,40.4078 -2.56335,38.4369 Z " fill="#000000" fill-opacity="1.00" />			<path d="M-6.1307,42.3399 L-6.1307,42.0095 L-12.0761,42.0095 L-12.0761,42.3399 L-6.1307,42.3399 Z " fill="#000000" fill-opacity="1.00" />			<path d="M11.3924,42.6704 L11.3924,42.24 L5.44695,42.24 L5.44695,42.6704 L11.3924,42.6704 Z " fill="#000000" fill-opacity="1.00" />			<path d="M11.5759,46.0582 L11.5759,45.6278 L-12.141,45.6278 L-12.141,46.0582 L11.5759,46.0582 Z " fill="#000000" fill-opacity="1.00" />			<path d="M-0.991443,37.8864 L-1.70036,39.1115 L-0.991443,40.3431 L0.423127,40.3431 L1.13531,39.1115 L0.423127,37.8864 L-0.991443,37.8864 Z " fill="#000000" fill-opacity="1.00" />			<path d="M-10.887,-30.3976 C-10.2627,-30.3976 -9.75885,-33.3013 -9.74789,-33.9147 L-9.74789,-41.1434 C-9.74789,-41.7677 -10.2517,-44.9327 -10.887,-44.9327 L-18.1157,-44.9327 C-18.74,-44.9327 -19.2548,-41.7787 -19.2548,-41.1434 L-19.2548,-33.9256 C-19.2548,-33.3013 -18.751,-30.3976 -18.1157,-30.3976 L-10.887,-30.3976 Z " fill="#000000" fill-opacity="1.00" />			<path d="M17.8925,50.5648 C18.5168,50.5648 19.0207,47.661 19.0316,47.0477 L19.0316,39.819 C19.0316,39.1947 18.5278,36.0296 17.8925,36.0296 L10.6638,36.0296 C10.0395,36.0296 9.52474,39.1837 9.52474,39.819 L9.52474,47.0367 C9.52474,47.661 10.0286,50.5648 10.6638,50.5648 L17.8925,50.5648 Z " fill="#000000" fill-opacity="1.00" />			<path d="M-10.9668,50.9704 C-10.3425,50.9704 -9.83868,48.0667 -9.82773,47.4533 L-9.82773,40.2246 C-9.82773,39.6003 -10.3316,36.4352 -10.9668,36.4352 L-18.1955,36.4352 C-18.8198,36.4352 -19.3346,39.5893 -19.3346,40.2246 L-19.3346,47.4424 C-19.3346,48.0667 -18.8308,50.9704 -18.1955,50.9704 L-10.9668,50.9704 Z " fill="#000000" fill-opacity="1.00" />			<path d="M17.8152,-30.3976 C18.4395,-30.3976 18.9433,-33.3013 18.9542,-33.9147 L18.9542,-41.1434 C18.9542,-41.7677 18.4504,-44.9327 17.8152,-44.9327 L10.5864,-44.9327 C9.96212,-44.9327 9.44735,-41.7787 9.44735,-41.1434 L9.44735,-33.9256 C9.44735,-33.3013 9.95117,-30.3976 10.5864,-30.3976 L17.8152,-30.3976 Z " fill="#000000" fill-opacity="1.00" />		</g>	</svg>