<?xml version="1.0" encoding="UTF-8" standalone="no"?>
<svg
   xmlns:vectornator="http://vectornator.io"
   xmlns:dc="http://purl.org/dc/elements/1.1/"
   xmlns:cc="http://creativecommons.org/ns#"
   xmlns:rdf="http://www.w3.org/1999/02/22-rdf-syntax-ns#"
   xmlns:svg="http://www.w3.org/2000/svg"
   xmlns="http://www.w3.org/2000/svg"
   xmlns:sodipodi="http://sodipodi.sourceforge.net/DTD/sodipodi-0.dtd"
   xmlns:inkscape="http://www.inkscape.org/namespaces/inkscape"
   height="605.11536"
   style="clip-rule:evenodd;fill-rule:evenodd;stroke-linecap:round;stroke-linejoin:round"
   xml:space="preserve"
   width="998.17108"
   version="1.1"
   viewBox="0 0 998.17108 605.11536"
   id="svg39"
   sodipodi:docname="New Document.svg"
   inkscape:version="1.0.1 (c497b03c, 2020-09-10)"><sodipodi:namedview
   pagecolor="#ffffff"
   bordercolor="#666666"
   borderopacity="1"
   objecttolerance="10"
   gridtolerance="10"
   guidetolerance="10"
   inkscape:pageopacity="0"
   inkscape:pageshadow="2"
   inkscape:window-width="1440"
   inkscape:window-height="814"
   id="namedview41"
   showgrid="false"
   inkscape:zoom="0.65901387"
   inkscape:cx="404.17219"
   inkscape:cy="294.78094"
   inkscape:window-x="346"
   inkscape:window-y="1103"
   inkscape:window-maximized="1"
   inkscape:current-layer="svg39" />
<metadata
   id="metadata10">
<vectornator:setting
   key="DimensionsVisible"
   value="1" />
<vectornator:setting
   key="SnapToGrid"
   value="0" />
<vectornator:setting
   key="SnapToPoints"
   value="0" />
<vectornator:setting
   key="GuidesVisible"
   value="1" />
<vectornator:setting
   key="RulersVisible"
   value="1" />
<vectornator:setting
   key="SnapToEdges"
   value="0" />
<vectornator:setting
   key="DisplayWhiteBackground"
   value="0" />
<vectornator:setting
   key="SnapToGuides"
   value="1" />
<vectornator:setting
   key="GridSpacing"
   value="36" />
<vectornator:setting
   key="Units"
   value="Pixels" />
<vectornator:setting
   key="DynamicGuides"
   value="0" />
<vectornator:setting
   key="New"
   value="1" />
<rdf:RDF><cc:Work
     rdf:about=""><dc:format>image/svg+xml</dc:format><dc:type
       rdf:resource="http://purl.org/dc/dcmitype/StillImage" /></cc:Work></rdf:RDF></metadata>
<defs
   id="defs12" />
<g
   id="Layer 1"
   vectornator:layerName="Layer 1"
   transform="translate(-18.91757,-405.53249)">
<path
   d="M 103.103,722.098 C 155.74,535.222 232.185,464.653 406.61,464.653 c 174.425,0 243.531,-13.746 344.713,91.478 104.3,108.467 19.791,390.742 -154.634,390.742 -174.425,0 -544.0799,-45.508 -493.586,-224.775 z"
   opacity="1"
   fill="#df79a2"
   id="path14" />
<path
   d="m 195.884,838.569 v 0 c 19.732,4.851 37.083,26.062 32.204,45.68 l -18.192,34.668 c -4.879,19.618 -20.151,28.53 -39.883,23.679 v 0 c -19.732,-4.85 -31.773,-24.686 -26.894,-44.304 l 8.203,-32.984 c 4.879,-19.618 24.83,-31.59 44.562,-26.739 z"
   opacity="1"
   fill="#df79a2"
   id="path16" />
<path
   d="m 540.447,846.267 v 0 c 20.829,-9.382 45.364,-0.199 54.8,20.51 l 39.052,85.707 c 9.436,20.709 0.2,45.103 -20.629,54.486 v 0 c -20.83,9.38 -45.365,0.2 -54.8,-20.512 l -39.346,-59.624 0.293,-26.084 c -9.436,-20.709 -0.199,-45.102 20.63,-54.483 z"
   opacity="1"
   fill="#df79a2"
   id="path18" />
<path
   stroke="#000000"
   stroke-width="1.73"
   d="m 648.312,438.666 c 44.868,-97.693 49.063,52.649 164.555,105.08 115.491,52.43 238.783,-47.369 193.913,50.324 C 961.915,691.763 833.885,785.821 718.394,733.39 602.903,680.96 603.445,536.359 648.312,438.666 Z"
   fill="#df79a2"
   stroke-linecap="butt"
   opacity="1"
   stroke-linejoin="round"
   id="path20" />
<path
   d="m 664.01,861.991 v 0 c 13.847,-13.277 37.411,-16.443 50.764,-2.675 l 28.597,34.607 c 13.354,13.768 12.953,35.691 -0.894,48.968 v 0 c -13.848,13.276 -35.899,12.878 -49.253,-0.89 l -33.656,-33.026 c -13.353,-13.768 -9.406,-33.708 4.442,-46.984 z"
   opacity="1"
   fill="#df79a2"
   id="path22" />
<path
   d="m 173.682,769.622 v 0 c 18.328,19.024 17.674,49.218 -1.46,67.441 l -31.038,29.558 -41.103,39.144 c -19.1351,18.222 -49.5051,17.572 -67.8336,-1.452 v 0 C 13.919,885.289 14.5727,855.094 33.7075,836.872 l 43.4402,-41.37 28.7003,-27.332 c 19.135,-18.223 49.505,-17.573 67.834,1.452 z"
   opacity="1"
   fill="#df79a2"
   id="path24" />
<path
   stroke="#000000"
   stroke-width="1.73"
   d="m 677.697,657.927 c 0,-21.313 11.799,-38.589 26.355,-38.589 14.555,0 26.354,17.276 26.354,38.589 0,21.312 -11.799,38.589 -26.354,38.589 -14.556,0 -26.355,-17.277 -26.355,-38.589 z"
   fill="#000000"
   stroke-linecap="butt"
   opacity="1"
   stroke-linejoin="round"
   id="path26" />
<path
   d="m 808.991,641.252 c 0,-17.365 13.302,-31.443 29.709,-31.443 16.408,0 29.709,14.078 29.709,31.443 0,17.366 -13.301,31.443 -29.709,31.443 -16.407,0 -29.709,-14.077 -29.709,-31.443 z"
   opacity="1"
   fill="#ffffff"
   id="path28" />
<path
   d="m 815.965,641.355 c 0,-8.931 15.332,-7.97 23.77,-7.97 8.438,0 22.665,-1.511 22.665,7.42 0,8.931 -14.503,5.771 -22.941,5.771 -8.439,0 -23.494,3.71 -23.494,-5.221 z"
   opacity="1"
   fill="#000000"
   id="path30" />
<path
   d="m 247.591,534.096 c 0,15.979 63.49,-15.323 103.689,-31.141 28.724,-11.303 62.953,-15.95 85.635,-17.469 22.682,-1.519 46.636,-1.677 77.598,4.676 33.67,6.908 70.585,37.292 70.585,23.02 0,-27.397 -133.424,-39.089 -149.109,-39.089 -15.685,0 -188.398,32.606 -188.398,60.003 z"
   opacity="1"
   fill="#000000"
   id="path32" />
<path
   stroke="#000000"
   stroke-width="1.73"
   d="m 697.259,548.829 c 0,-8.172 6.259,-14.797 13.98,-14.797 7.722,0 13.981,6.625 13.981,14.797 0,8.172 -6.259,14.797 -13.981,14.797 -7.721,0 -13.98,-6.625 -13.98,-14.797 z"
   fill="#000000"
   stroke-linecap="butt"
   opacity="1"
   stroke-linejoin="round"
   id="path34" />
<path
   d="m 204.678,606.891 c -19.438,0.783 -37.36,31.279 -61.342,21.606 6.474,-49.799 3.636,-25.171 -34.411,-13.104 -9.027,-19.407 -35.7846,-47.362 -0.564,-54.399 -12.6644,-8.763 -25.9972,30.854 -46.8117,26.49 -31.3622,-19.51 16.2978,-69.364 -21.1397,-69.543 -15.1417,28.549 -13.9543,75.344 20.0979,88.853 26.0981,-0.57 50.0715,-22.85 60.4435,-45.461 2.735,-8.491 -3.672,-17.811 -12.396,-19.006 -53.3199,4.56 -38.5606,65.277 -8.387,90.191 28.236,11.926 87.458,-31.865 51.453,-55.076 -98.4065,48.301 59.446,112.057 53.057,29.449"
   opacity="1"
   fill="#df79a2"
   id="path36" />
</g>
</svg>
