<?xml version="1.0" encoding="UTF-8" standalone="no"?>
<svg
   xmlns:dc="http://purl.org/dc/elements/1.1/"
   xmlns:cc="http://creativecommons.org/ns#"
   xmlns:rdf="http://www.w3.org/1999/02/22-rdf-syntax-ns#"
   xmlns:svg="http://www.w3.org/2000/svg"
   xmlns="http://www.w3.org/2000/svg"
   xmlns:sodipodi="http://sodipodi.sourceforge.net/DTD/sodipodi-0.dtd"
   xmlns:inkscape="http://www.inkscape.org/namespaces/inkscape"
   version="1.1"
   width="300.00"
   height="500.00"
   viewBox="0 0 300.0 500.0"
   id="svg15"
   sodipodi:docname="full-deck.svg"
   inkscape:version="1.0.1 (c497b03c, 2020-09-10)">
  <metadata
     id="metadata21">
    <rdf:RDF>
      <cc:Work
         rdf:about="">
        <dc:format>image/svg+xml</dc:format>
        <dc:type
           rdf:resource="http://purl.org/dc/dcmitype/StillImage" />
      </cc:Work>
    </rdf:RDF>
  </metadata>
  <defs
     id="defs19" />
  <sodipodi:namedview
     pagecolor="#ffffff"
     bordercolor="#666666"
     borderopacity="1"
     objecttolerance="10"
     gridtolerance="10"
     guidetolerance="10"
     inkscape:pageopacity="0"
     inkscape:pageshadow="2"
     inkscape:window-width="1920"
     inkscape:window-height="994"
     id="namedview17"
     showgrid="false"
     inkscape:zoom="1.338"
     inkscape:cx="150"
     inkscape:cy="250"
     inkscape:window-x="0"
     inkscape:window-y="23"
     inkscape:window-maximized="1"
     inkscape:current-layer="svg15" />
  <g
     id="document"
     transform="matrix(2.7282012,0,0,2.7282012,152.42613,255.78615)">
    <path
       d="m -21.2617,36.4352 c 0,-92.1973 0,-27.27722 0,-73.3364 0,-16.3548 -0.1972,-29.7962 3.1145,-34.0531 7.7459,-9.9565 15.92499,-9.8616 18.15530048,-9.8616 4.30869952,0 11.11059952,3.1184 15.90789952,9.8616 4.0757,5.729 5.0675,11.4666 5.0675,11.4666 V 3.11304"
       fill="none"
       stroke-width="2"
       stroke="#000000"
       stroke-linecap="round"
       stroke-linejoin="round"
       id="path10" />
    <path
       d="m 20.982,-30.3976 c 0,92.1974 0,27.27729 0,73.3365 0,16.3548 0.1973,29.7962 -3.1145,34.0531 -7.7458,9.9564 -15.92494,9.8615 -18.155251,9.8615 -4.308699,0 -11.110649,-3.1184 -15.907849,-9.8615 -4.0758,-5.729 -5.0675,-11.4666 -5.0675,-11.4666 V 2.92461"
       fill="none"
       stroke-width="2"
       stroke="#000000"
       stroke-linecap="square"
       stroke-linejoin="miter"
       id="path12" />
  </g>
</svg>
