<?xml version="1.0" encoding="utf-8" ?>	<!-- Generator: Assembly 2.4 - http://assemblyapp.co -->	<svg version="1.1" xmlns="http://www.w3.org/2000/svg" xmlns:xlink="http://www.w3.org/1999/xlink" width="500.00" height="300.00" viewBox="0 0 500.0 300.0">		<g id="document" transform="scale(2.9728183669357535 2.9728183669357535) translate(87.67938895849097 34.518795016038474)">			<path d="M-14.4242,44.8371 L-17.2818,32.5468 L-19.9365,28.2809 L-17.2818,42.4214 C-17.2818,50.2269 -10.9468,56.5618 -3.1413,56.5618 C4.66423,56.5618 10.9992,50.2269 10.9992,42.4214 L9.87365,42.3106 L9.87365,39.1362 L8.80251,42.3106 L8.80251,43.8693 C8.80251,48.5639 1.55333,54.8467 -3.1413,54.8467 C-7.83593,54.8467 -14.4242,49.5317 -14.4242,44.8371 Z " fill="#000000" fill-opacity="1.00" />			<path d="M-17.2788,42.4214 L-14.4487,45.3757 C-14.4487,29.7646 -24.2924,17.0947 -39.9035,17.0947 L-39.9035,19.7966 C-27.4033,19.7966 -17.2788,29.9212 -17.2788,42.4214 Z " fill="#000000" fill-opacity="1.00" />			<path d="M10.8992,43.867 L7.71674,47.3585 C7.71674,31.7474 17.9129,19.0775 33.5239,19.0775 L33.5239,21.2423 C21.0238,21.2423 10.8992,31.3669 10.8992,43.867 Z " fill="#000000" fill-opacity="1.00" />			<path d="M33.5239,19.1133 L33.5239,21.2091 L71.231,21.2091 L71.231,19.1133 L33.5239,19.1133 Z " fill="#000000" fill-opacity="1.00" />			<path d="M-77.6106,17.0175 L-77.6106,19.7469 L-39.9035,19.7469 L-39.9035,17.0175 L-77.6106,17.0175 Z " fill="#000000" fill-opacity="1.00" />			<path d="M-78.7744,-4.46866 L-78.7744,-1.73924 L71.6421,-1.73924 L71.6421,-4.46866 L-78.7744,-4.46866 Z " fill="#000000" fill-opacity="1.00" />			<path d="M0.929899,47.3585 L5.42598,39.5887 L0.929899,31.7776 L-8.04155,31.7776 L-12.5584,39.5887 L-8.04155,47.3585 L0.929899,47.3585 Z " fill="#000000" fill-opacity="1.00" />		</g>	</svg>